<?xml version="1.0" standalone="no"?>
<!DOCTYPE svg PUBLIC "-//W3C//DTD SVG 20010904//EN"
 "http://www.w3.org/TR/2001/REC-SVG-20010904/DTD/svg10.dtd">
<svg version="1.0" xmlns="http://www.w3.org/2000/svg"
 width="360.000000pt" height="360.000000pt" viewBox="0 0 360.000000 360.000000"
 preserveAspectRatio="xMidYMid meet">
<metadata>
Created by potrace 1.14, written by Peter Selinger 2001-2017
</metadata>
<g transform="translate(0.000000,360.000000) scale(0.100000,-0.100000)"
fill="#000000" stroke="none">
<path d="M0 1800 l0 -1800 1800 0 1800 0 0 1800 0 1800 -1800 0 -1800 0 0
-1800z m1414 1065 c13 -17 15 -71 16 -347 l0 -328 388 0 387 0 -3 235 c-2 158
1 241 8 255 10 19 45 39 79 44 10 2 14 22 16 70 1 37 8 73 14 79 14 14 684 18
698 4 9 -10 17 -1904 8 -1954 -6 -31 -8 -33 -50 -33 l-45 0 0 -80 c0 -78 -1
-81 -27 -91 -41 -16 -668 -8 -685 9 -10 10 -13 90 -13 367 l0 355 -387 0 -388
0 0 -258 c0 -291 -2 -298 -67 -304 l-37 -3 2 -65 c3 -111 23 -104 -336 -108
-169 -2 -326 0 -349 3 l-43 6 0 984 0 985 23 14 c12 7 33 16 47 19 23 6 25 10
21 58 -4 59 12 96 43 102 12 3 166 4 343 3 310 -1 323 -2 337 -21z"/>
<path d="M770 2768 l0 -43 222 3 c251 4 280 0 314 -33 l24 -24 0 -331 0 -330
438 0 438 0 -2 48 -2 47 -426 3 -426 2 0 350 0 350 -290 0 -290 0 0 -42z"/>
<path d="M2389 2806 c-3 -3 -3 -22 -1 -43 l4 -38 228 3 c203 3 232 1 267 -15
l38 -18 3 -868 c1 -566 6 -867 12 -867 7 0 10 318 10 925 l0 925 -278 0 c-153
0 -281 -2 -283 -4z"/>
<path d="M670 1715 l0 -925 290 0 290 0 0 50 0 50 -269 0 -269 0 -11 28 c-8
19 -11 259 -9 875 2 672 0 847 -9 847 -10 0 -13 -192 -13 -925z"/>
<path d="M770 1803 l0 -838 240 0 240 0 0 283 0 282 50 0 50 0 0 85 0 85 504
0 c277 0 511 -3 520 -6 14 -5 16 -47 16 -368 l0 -361 230 0 230 0 0 838 0 837
-230 0 -230 0 0 -264 0 -265 -51 -3 -51 -3 -2 -85 -1 -85 -517 -3 -518 -2 0
355 0 355 -240 0 -240 0 0 -837z"/>
<path d="M2285 2415 c0 -173 3 -225 13 -225 9 0 12 52 12 225 0 173 -3 225
-12 225 -10 0 -13 -52 -13 -225z"/>
<path d="M1430 1575 l0 -45 428 -2 427 -3 0 -368 0 -367 283 0 282 0 0 50 0
50 -259 0 c-196 0 -261 3 -269 13 -7 8 -11 137 -13 365 l-3 352 -438 0 -438
-1 0 -44z"/>
<path d="M1329 1446 c-9 -9 2 -486 11 -486 6 0 10 94 10 245 0 216 -4 258 -21
241z"/>
</g>
</svg>
